<?xml version="1.0" encoding="UTF-8" standalone="no"?>
<svg
   viewBox="0 0 17 17"
   xmlns="http://www.w3.org/2000/svg"
   xmlns:svg="http://www.w3.org/2000/svg">
  <path
     style="fill:none;stroke:#ffb380;stroke-width:0.398703;stroke-linejoin:miter"
     d="M 0.2993515,7.1669044 H 16.700794 v 7.3236636 a 0.85149506,0.91008031 0 0 1 -0.851497,0.910081 H 1.1508473 A 0.85149506,0.91008031 0 0 1 0.2993515,14.490568 Z"
      />
  <path
     style="fill:#ffb380;stroke:#ffb380;stroke-width:0.199351;stroke-linecap:round;stroke-linejoin:miter"
     d="M 1.2713542,2.5810262 A 1.0656783,1.1443021 0 0 0 0.2056347,3.7253928 V 6.4496999 H 16.796175 V 3.7253928 a 1.0656783,1.1443021 0 0 0 -1.06571,-1.1443666 h -1.291153 v 0.8299206 c -10e-6,0.5340185 -0.394904,1.0139518 -0.910811,1.0139518 -0.515899,0 -0.911769,-0.4799333 -0.911769,-1.0139518 V 2.5810262 h -0.688713 v 0.8299206 c 0,0.5340185 -0.395372,1.0139518 -0.91129,1.0139518 -0.515887,0 -0.910812,-0.4799333 -0.910812,-1.0139518 V 2.5810262 H 6.9044861 v 0.8299206 c 0,0.5340185 -0.3944457,1.0139518 -0.9103335,1.0139518 -0.5159079,0 -0.9117679,-0.4799333 -0.9117679,-1.0139518 V 2.5810262 H 4.393193 v 0.8299206 c 0,0.5340185 -0.3949139,1.0139518 -0.9108096,1.0139518 -0.5158879,0 -0.9112898,-0.4799333 -0.9112898,-1.0139518 V 2.5810262 Z"
      />
  <rect
     style="fill:#ffb380;stroke:none;stroke-width:0.398703"
     width="0.87980443"
     height="2.5192382"
     ry="0.50826746"
     y="1.4"
     x="3.0424697" />
  <rect
     style="fill:#ffb380;stroke:none;stroke-width:0.398703"
     width="0.87980443"
     height="2.5192382"
     ry="0.50826746"
     y="1.4"
     x="5.5539584" />
  <rect
     style="fill:#ffb380;stroke:none;stroke-width:0.398703"
     width="0.87980443"
     height="2.5192382"
     ry="0.50826746"
     y="1.4"
     x="10.577025" />
  <rect
     style="fill:#ffb380;stroke:none;stroke-width:0.398703"
     width="0.87980443"
     height="2.5192382"
     ry="0.50826746"
     y="1.4"
     x="13.088483" />
  <rect
     style="fill:#ffb380;stroke:#ffb380;stroke-width:0.398703;stroke-linecap:round;stroke-linejoin:miter"
     ry="0.11571148"
     rx="0.11553593"
     width="2.3241429"
     height="1.678566"
     x="13.570251"
     y="7.9679132" />
  <rect
     style="fill:#ffb380;stroke:#ffb380;stroke-width:0.398703;stroke-linecap:round;stroke-linejoin:miter"
     ry="0.11571148"
     rx="0.11553593"
     width="2.3241429"
     height="1.678566"
     x="13.570251"
     y="10.444495" />
  <rect
     style="fill:#ffb380;stroke:#ffb380;stroke-width:0.398703;stroke-linecap:round;stroke-linejoin:miter"
     ry="0.11571148"
     rx="0.11553593"
     width="2.3241429"
     height="1.678566"
     x="13.570251"
     y="12.921062" />
  <rect
     style="fill:#ffb380;stroke:#ffb380;stroke-width:0.398703;stroke-linecap:round;stroke-linejoin:miter"
     ry="0.11571148"
     rx="0.11553593"
     width="2.3241429"
     height="1.678566"
     x="1.1155174"
     y="7.9679132" />
  <rect
     style="fill:#ffb380;stroke:#ffb380;stroke-width:0.398703;stroke-linecap:round;stroke-linejoin:miter"
     ry="0.11571148"
     rx="0.11553593"
     width="2.3241429"
     height="1.678566"
     x="1.1155174"
     y="10.444495" />
  <rect
     style="fill:#ffb380;stroke:#ffb380;stroke-width:0.398703;stroke-linecap:round;stroke-linejoin:miter"
     ry="0.11571148"
     rx="0.11553593"
     width="2.3241429"
     height="1.678566"
     x="1.1155174"
     y="12.921062" />
  <rect
     style="fill:#ffb380;stroke:#ffb380;stroke-width:0.398703;stroke-linecap:round;stroke-linejoin:miter"
     ry="0.11571148"
     rx="0.11553593"
     width="2.3241429"
     height="1.678566"
     x="4.2267694"
     y="7.9679132" />
  <rect
     style="fill:#ffb380;stroke:#ffb380;stroke-width:0.398703;stroke-linecap:round;stroke-linejoin:miter"
     ry="0.11571148"
     rx="0.11553593"
     width="2.3241429"
     height="1.678566"
     x="4.2267694"
     y="10.444495" />
  <rect
     style="fill:#ffb380;stroke:#ffb380;stroke-width:0.398703;stroke-linecap:round;stroke-linejoin:miter"
     ry="0.11571148"
     rx="0.11553593"
     width="2.3241429"
     height="1.678566"
     x="4.2267694"
     y="12.921062" />
  <rect
     style="fill:#ffb380;stroke:#ffb380;stroke-width:0.398703;stroke-linecap:round;stroke-linejoin:miter"
     ry="0.11571148"
     rx="0.11553593"
     width="2.3241429"
     height="1.678566"
     x="7.3476877"
     y="7.9679132" />
  <rect
     style="fill:#ffb380;stroke:#ffb380;stroke-width:0.398703;stroke-linecap:round;stroke-linejoin:miter"
     ry="0.11571148"
     rx="0.11553593"
     width="2.3241429"
     height="1.678566"
     x="7.3476877"
     y="10.444495" />
  <rect
     style="fill:#ffb380;stroke:#ffb380;stroke-width:0.398703;stroke-linecap:round;stroke-linejoin:miter"
     ry="0.11571148"
     rx="0.11553593"
     width="2.3241429"
     height="1.678566"
     x="7.3476877"
     y="12.921062" />
  <rect
     style="fill:#ffb380;stroke:#ffb380;stroke-width:0.398703;stroke-linecap:round;stroke-linejoin:miter"
     ry="0.11571148"
     rx="0.11553593"
     width="2.3241429"
     height="1.678566"
     x="10.458969"
     y="7.9679132"/>
  <rect
     style="fill:#ffb380;stroke:#ffb380;stroke-width:0.398703;stroke-linecap:round;stroke-linejoin:miter"
     ry="0.11571148"
     rx="0.11553593"
     width="2.3241429"
     height="1.678566"
     x="10.458969"
     y="10.444495" />
  <rect
     style="fill:#ffb380;stroke:#ffb380;stroke-width:0.398703;stroke-linecap:round;stroke-linejoin:miter"
     ry="0.11571148"
     rx="0.11553593"
     width="2.3241429"
     height="1.678566"
     x="10.458969"
     y="12.921062" />
</svg>
